<svg width="61" height="45" viewBox="0 0 61 45" fill="none" xmlns="http://www.w3.org/2000/svg">
<path d="M29.1735 3.6204C32.103 3.6204 34.4778 5.93619 34.4778 8.79285H23.8691C23.8691 5.93619 26.244 3.6204 29.1735 3.6204Z" fill="#1dd1a1"/>
<path fill-rule="evenodd" clip-rule="evenodd" d="M23.1183 0.302999C23.5326 -0.100996 24.2043 -0.101 24.6186 0.30299L29.1729 4.74394L33.727 0.302999C34.1413 -0.100996 34.813 -0.101 35.2273 0.30299C35.6416 0.706981 35.6416 1.36198 35.2273 1.76598L29.1729 7.66992L23.1183 1.76599C22.704 1.362 22.704 0.706995 23.1183 0.302999Z" fill="#1dd1a1"/>
<path fill-rule="evenodd" clip-rule="evenodd" d="M0 10.0859C0 9.37183 0.59375 8.79285 1.32617 8.79285H59.6738C60.4062 8.79285 61 9.37183 61 10.0859V38.5344C61 39.2485 60.4062 39.8275 59.6738 39.8275H1.32617C0.59375 39.8275 0 39.2485 0 38.5344V10.0859ZM42.4355 34.6552C45.3643 34.6552 47.7393 32.3394 47.7393 29.4827H37.1309C37.1309 32.3394 39.5059 34.6552 42.4355 34.6552ZM12.5977 21.724V26.2499H7.95605V30.1293H12.5977V34.6552H16.5752V30.1293H21.2168V26.2499H16.5752V21.724H12.5977ZM37.1309 26.8964C37.1309 28.3247 35.9434 29.4827 34.4785 29.4827C33.0137 29.4827 31.8262 28.3247 31.8262 26.8964C31.8262 25.468 33.0137 24.3102 34.4785 24.3102C35.9434 24.3102 37.1309 25.468 37.1309 26.8964ZM50.3916 29.4827C51.8564 29.4827 53.0439 28.3247 53.0439 26.8964C53.0439 25.468 51.8564 24.3102 50.3916 24.3102C48.9268 24.3102 47.7393 25.468 47.7393 26.8964C47.7393 28.3247 48.9268 29.4827 50.3916 29.4827Z" fill="#1dd1a1"/>
<path d="M10.6087 39.8276C10.6087 42.6843 8.23386 45 5.30435 45C2.37484 45 0 42.6843 0 39.8276C0 36.9709 2.37484 34.6552 5.30435 34.6552C8.23386 34.6552 10.6087 36.9709 10.6087 39.8276Z" fill="#1dd1a1"/>
<path d="M61.0003 39.8276C61.0003 42.6843 58.6255 45 55.6959 45C52.7664 45 50.3916 42.6843 50.3916 39.8276C50.3916 36.9709 52.7664 34.6552 55.6959 34.6552C58.6255 34.6552 61.0003 36.9709 61.0003 39.8276Z" fill="#1dd1a1"/>
<path d="M47.7396 39.8276C47.7396 42.6843 45.3647 45 42.4352 45C39.5057 45 37.1309 42.6843 37.1309 39.8276C37.1309 36.9709 39.506 34.6552 42.4355 34.6552C45.3651 34.6552 47.7396 36.9709 47.7396 39.8276Z" fill="#1dd1a1"/>
<path d="M23.8694 39.8276C23.8694 42.6843 21.4946 45 18.5651 45C15.6356 45 13.2607 42.6843 13.2607 39.8276C13.2607 36.9709 15.6356 34.6552 18.5651 34.6552C21.4946 34.6552 23.8694 36.9709 23.8694 39.8276Z" fill="#1dd1a1"/>
</svg>
